<svg width="34" height="41" viewBox="0 0 34 41" fill="none" xmlns="http://www.w3.org/2000/svg">
<path fill-rule="evenodd" clip-rule="evenodd" d="M0 17.1356C0 7.93578 7.68776 0.5 16.9868 0.5C26.3122 0.5 34 7.93578 34 17.1356C34 21.7714 32.314 26.0752 29.539 29.7232C26.4776 33.747 22.7044 37.253 18.457 40.0048C17.485 40.6408 16.6078 40.6888 15.5408 40.0048C11.2695 37.253 7.49618 33.747 4.461 29.7232C1.68396 26.0752 0 21.7714 0 17.1356ZM11.3885 17.6536C11.3885 20.7354 13.9034 23.1594 16.9868 23.1594C20.0724 23.1594 22.6116 20.7354 22.6116 17.6536C22.6116 14.5956 20.0724 12.0537 16.9868 12.0537C13.9034 12.0537 11.3885 14.5956 11.3885 17.6536Z" fill="white"/>
</svg>
