<svg width="28" height="24" viewBox="0 0 28 24" fill="none" xmlns="http://www.w3.org/2000/svg">
<path fill-rule="evenodd" clip-rule="evenodd" d="M20.5862 0C22.3742 0 24.0942 0.706667 25.3595 1.97467C26.6262 3.24 27.3342 4.94667 27.3342 6.73333V17.2667C27.3342 20.9867 24.3075 24 20.5862 24H7.41415C3.69281 24 0.66748 20.9867 0.66748 17.2667V6.73333C0.66748 3.01333 3.67948 0 7.41415 0H20.5862ZM22.7075 8.72L22.8142 8.61333C23.1328 8.22667 23.1328 7.66667 22.7995 7.28C22.6142 7.08133 22.3595 6.96 22.0942 6.93333C21.8142 6.91867 21.5475 7.01333 21.3462 7.2L15.3342 12C14.5608 12.6413 13.4528 12.6413 12.6675 12L6.66748 7.2C6.25281 6.89333 5.67948 6.93333 5.33415 7.29333C4.97415 7.65333 4.93415 8.22667 5.23948 8.62667L5.41415 8.8L11.4808 13.5333C12.2275 14.12 13.1328 14.44 14.0808 14.44C15.0262 14.44 15.9475 14.12 16.6928 13.5333L22.7075 8.72Z" fill="#191825" fill-opacity="0.75"/>
</svg>
